<svg width="447" height="419" viewBox="0 0 447 419" fill="none" xmlns="http://www.w3.org/2000/svg">
<path d="M443.576 85.0455L443.968 61.2262C443.992 59.7836 443.024 58.513 441.627 58.1582L375.662 41.3796L375.27 65.199C375.247 66.6415 376.215 67.9122 377.611 68.267L443.576 85.0455Z" fill="#C3F2FF"/>
<path d="M444.976 0.000409041L444.584 23.8198C444.56 25.2623 443.551 26.5 442.143 26.8081L375.662 41.3796L376.054 17.5605C376.078 16.118 377.087 14.8803 378.495 14.5722L444.976 0.000409041Z" fill="#C3F2FF"/>
<path d="M354.805 83.2013L349.019 60.0921C348.669 58.6926 347.405 57.7158 345.964 57.7345L277.904 58.6006L283.69 81.7098C284.041 83.1093 285.305 84.0861 286.746 84.0674L354.805 83.2013Z" fill="#C3F2FF"/>
<path d="M334.146 0.691762L339.932 23.801C340.283 25.2005 339.628 26.6573 338.348 27.3192L277.904 58.6006L272.118 35.4916C271.768 34.0921 272.422 32.6353 273.702 31.9735L334.146 0.691762Z" fill="#C3F2FF"/>
<path d="M270.635 105.848L259.065 85.0239C258.364 83.7627 256.89 83.1463 255.504 83.5374L189.987 101.989L201.557 122.813C202.258 124.074 203.732 124.691 205.119 124.3L270.635 105.848Z" fill="#C3F2FF"/>
<path d="M229.325 31.497L240.895 52.3212C241.595 53.5823 241.34 55.1589 240.275 56.1295L189.987 101.989L178.417 81.1651C177.716 79.9039 177.972 78.3274 179.037 77.3568L229.325 31.497Z" fill="#C3F2FF"/>
<path d="M195.872 147.293L179.306 130.173C178.303 129.137 176.72 128.923 175.482 129.659L116.973 164.439L133.539 181.559C134.542 182.596 136.125 182.81 137.364 182.073L195.872 147.293Z" fill="#C3F2FF"/>
<path d="M136.726 86.1678L153.291 103.288C154.295 104.325 154.456 105.913 153.679 107.127L116.973 164.439L100.408 147.319C99.4047 146.282 99.2432 144.694 100.021 143.48L136.726 86.1678Z" fill="#C3F2FF"/>
<path d="M137.648 203.912L117.215 191.662C115.978 190.92 114.394 191.123 113.388 192.156L65.8751 240.893L86.3072 253.143C87.5446 253.884 89.129 253.681 90.1346 252.649L137.648 203.912Z" fill="#C3F2FF"/>
<path d="M64.6962 160.177L85.1284 172.426C86.3658 173.168 86.9331 174.661 86.4961 176.034L65.8751 240.893L45.4431 228.644C44.2057 227.903 43.6385 226.41 44.0755 225.037L64.6962 160.177Z" fill="#C3F2FF"/>
<path d="M100.564 275.177L77.6573 268.633C76.27 268.237 74.7921 268.843 74.0879 270.1L40.8082 329.475L63.7144 336.018C65.1017 336.415 66.5796 335.809 67.2838 334.551L100.564 275.177Z" fill="#C3F2FF"/>
<path d="M18.7785 251.814L41.6848 258.357C43.072 258.754 44.0064 260.049 43.9396 261.488L40.8082 329.475L17.9021 322.931C16.5149 322.535 15.5806 321.24 15.6473 319.8L18.7785 251.814Z" fill="#C3F2FF"/>
<path d="M85.0455 348.815L61.2262 348.423C59.7836 348.399 58.513 349.367 58.1582 350.764L41.3796 416.728L65.199 417.12C66.6415 417.144 67.9122 416.176 68.267 414.779L85.0455 348.815Z" fill="#C3F2FF"/>
<path d="M0.000399875 347.415L23.8198 347.807C25.2623 347.831 26.5 348.84 26.8081 350.248L41.3796 416.728L17.5605 416.336C16.118 416.312 14.8802 415.303 14.5722 413.896L0.000399875 347.415Z" fill="#C3F2FF"/>
</svg>
