<svg width="489" height="489" viewBox="0 0 489 489" fill="none" xmlns="http://www.w3.org/2000/svg">
    <path d="M245.072 91.8782L287.659 134.464C290.238 137.044 294.252 137.513 297.359 135.592L444.111 44.8907L401.525 2.30445C398.946 -0.274635 394.931 -0.744509 391.824 1.17675L245.072 91.8782Z" fill="#17CAFA"/>
    <path d="M397.123 243.929L354.537 201.343C351.958 198.764 351.488 194.749 353.409 191.643L444.111 44.8906L486.697 87.4769C489.276 90.056 489.746 94.0708 487.825 97.1772L397.123 243.929Z" fill="#17CAFA"/>
    <path d="M397.123 243.93L354.537 286.516C351.958 289.095 351.488 293.11 353.409 296.216L444.111 442.968L486.697 400.382C489.276 397.803 489.746 393.788 487.825 390.682L397.123 243.93Z" fill="#17CAFA"/>
    <path d="M245.072 395.981L287.659 353.394C290.238 350.815 294.252 350.345 297.359 352.267L444.111 442.968L401.525 485.554C398.946 488.133 394.931 488.603 391.824 486.682L245.072 395.981Z" fill="#17CAFA"/>
    <path d="M243.933 397.118L201.347 354.532C198.768 351.953 194.753 351.483 191.647 353.404L44.8945 444.106L87.4808 486.692C90.0599 489.271 94.0747 489.741 97.1811 487.82L243.933 397.118Z" fill="#17CAFA"/>
    <path d="M91.8782 245.068L134.464 287.655C137.044 290.234 137.513 294.249 135.592 297.355L44.8907 444.107L2.30445 401.521C-0.274635 398.942 -0.744509 394.927 1.17675 391.821L91.8782 245.068Z" fill="#17CAFA"/>
    <path d="M91.8782 245.068L134.464 202.482C137.044 199.903 137.513 195.888 135.592 192.781L44.8907 46.0293L2.30445 88.6156C-0.274635 91.1946 -0.744509 95.2095 1.17675 98.3159L91.8782 245.068Z" fill="#17CAFA"/>
    <path d="M243.933 93.0155L201.347 135.602C198.768 138.181 194.753 138.651 191.647 136.73L44.8945 46.0281L87.4808 3.44703C90.0599 0.867943 94.0747 0.398069 97.1811 2.31933L243.933 93.0207V93.0155Z" fill="#17CAFA"/>
</svg>
