<svg width="433" height="109" viewBox="0 0 433 109" fill="none" xmlns="http://www.w3.org/2000/svg">
<path d="M45.4791 30.1737C43.5046 26.9602 40.7559 24.5081 37.2226 22.8279C33.6801 21.1476 29.612 20.3029 24.9999 20.3029H0V88.7077H10.885V62.9984H24.9999C29.612 62.9984 33.671 62.1446 37.1768 60.4279C40.6826 58.7112 43.4313 56.2682 45.4334 53.082C47.4262 49.8959 48.4318 46.1032 48.4318 41.6962C48.4318 37.2892 47.4432 33.3872 45.4791 30.1737ZM36.0234 47.803C35.0087 49.5471 33.5794 50.9059 31.7343 51.8885C29.8892 52.8712 27.7303 53.3567 25.2771 53.3567H10.8863V29.9433H25.2771C27.7316 29.9433 29.8892 30.4301 31.7343 31.4128C33.5794 32.3954 35.0087 33.7542 36.0234 35.4983C37.029 37.2424 37.5456 39.3092 37.5456 41.6962C37.5456 44.0832 37.029 46.059 36.0234 47.803Z" fill="white"/>
<path d="M70.1983 40.5496C68.3323 41.6403 66.8572 43.2712 65.7706 45.4356V39.0347H55.8062V88.7091H66.2309V60.061C66.2309 56.2045 67.2914 53.2058 69.4124 51.0634C71.5348 48.9211 74.3175 47.85 77.7618 47.85H82.0967V38.393H79.0525C75.6081 38.393 72.6567 39.1128 70.1983 40.5496Z" fill="white"/>
<path d="M133.071 50.466C130.764 46.5822 127.656 43.5158 123.745 41.2837C119.843 39.0528 115.433 37.9322 110.517 37.9322C105.6 37.9322 101.163 39.0528 97.2322 41.2837C93.2935 43.5145 90.1747 46.5822 87.8693 50.466C85.5626 54.3498 84.4105 58.8036 84.4105 63.8263C84.4105 68.8489 85.5731 73.2194 87.9164 77.1397C90.2505 81.0599 93.3863 84.1458 97.3263 86.4131C101.256 88.6817 105.656 89.8101 110.518 89.8101C115.38 89.8101 119.678 88.6908 123.618 86.4587C127.548 84.2278 130.685 81.1523 133.019 77.2308C135.362 73.3106 136.534 68.8476 136.534 63.8263C136.534 58.805 135.381 54.3498 133.075 50.466H133.071ZM123.661 72.2277C122.333 74.7071 120.533 76.6529 118.255 78.0586C115.987 79.4629 113.403 80.1697 110.515 80.1697C107.628 80.1697 105.027 79.4629 102.72 78.0586C100.414 76.6529 98.5974 74.7071 97.2688 72.2277C95.9493 69.7483 95.2942 66.9487 95.2942 63.8263C95.2942 60.7039 95.9493 57.9316 97.2688 55.516C98.5974 53.1016 100.415 51.1727 102.72 49.7319C105.027 48.2911 107.619 47.574 110.515 47.574C113.412 47.574 115.985 48.2898 118.255 49.7319C120.535 51.1727 122.333 53.1016 123.661 55.516C124.981 57.9316 125.636 60.7039 125.636 63.8263C125.636 66.9487 124.981 69.7483 123.661 72.2277Z" fill="white"/>
<path d="M143.905 91.9226C143.905 94.553 143.136 96.5274 141.598 97.8445C140.06 99.1604 138.001 99.819 135.418 99.819C134.25 99.819 133.081 99.7279 131.912 99.5431V108.633C132.467 108.755 133.159 108.846 133.988 108.909C134.818 108.969 135.573 109 136.249 109C139.815 109 142.952 108.341 145.659 107.026C148.364 105.708 150.485 103.767 152.024 101.195C153.561 98.6242 154.331 95.5317 154.331 91.9213V39.0334H143.906L143.905 91.9226Z" fill="white"/>
<path d="M208.523 52.8075C207.453 49.9337 205.893 47.3723 203.864 45.1401C201.834 42.9093 199.343 41.1457 196.392 39.8611C193.439 38.5752 190.063 37.9322 186.244 37.9322C181.632 37.9322 177.471 39.0528 173.744 41.2837C170.027 43.5145 167.094 46.5627 164.935 50.4192C162.785 54.2756 161.706 58.7099 161.706 63.7326C161.706 68.7552 162.785 73.0516 164.935 77.0004C167.094 80.9493 170.072 84.0704 173.883 86.3663C177.703 88.6622 182.094 89.8088 187.075 89.8088C190.524 89.8088 193.67 89.2765 196.53 88.2014C199.39 87.1277 201.854 85.6764 203.911 83.84C205.977 82.0035 207.499 79.9198 208.477 77.5965L199.99 73.373C198.698 75.5128 197.01 77.2568 194.917 78.6065C192.832 79.9562 190.248 80.6265 187.167 80.6265C184.28 80.6265 181.678 79.9198 179.373 78.5154C177.066 77.1097 175.286 75.1457 174.022 72.639C173.155 70.9131 172.675 68.9856 172.545 66.8549H209.676C209.861 66.1209 209.99 65.3217 210.045 64.4679C210.109 63.6141 210.138 62.7876 210.138 61.9885C210.138 58.7477 209.603 55.6813 208.523 52.8075ZM172.803 58.5915C173.042 57.1689 173.431 55.8466 173.975 54.6439C175.146 52.0734 176.807 50.099 178.955 48.722C181.114 47.3449 183.54 46.6564 186.243 46.6564C188.946 46.6564 191.446 47.3449 193.531 48.722C195.624 50.099 197.165 51.9628 198.143 54.3225C198.696 55.6448 199.001 57.0674 199.065 58.5915H172.803Z" fill="white"/>
<path d="M233.619 49.6851C235.863 48.2769 238.4 47.5728 241.23 47.5728C244.059 47.5728 246.795 48.3537 249.07 49.9142C251.346 51.4748 253.005 53.5403 254.052 56.1121L263.278 51.9797C262.231 49.1645 260.617 46.7163 258.434 44.6339C256.251 42.554 253.684 40.9154 250.731 39.7219C247.78 38.5284 244.611 37.931 241.23 37.931C236.249 37.931 231.82 39.049 227.946 41.2824C224.072 43.5172 221.027 46.594 218.814 50.5103C216.6 54.4279 215.493 58.8349 215.493 63.7326C215.493 68.6303 216.6 73.1297 218.814 77.046C221.027 80.9636 224.072 84.0704 227.946 86.365C231.82 88.6609 236.249 89.8076 241.23 89.8076C244.674 89.8076 247.871 89.1945 250.824 87.9711C253.777 86.7477 256.342 85.0791 258.526 82.9667C260.708 80.8543 262.292 78.4829 263.277 75.8512L254.051 71.5353C253.004 74.1683 251.344 76.2638 249.069 77.8243C246.794 79.3849 244.18 80.1658 241.228 80.1658C238.277 80.1658 235.862 79.463 233.618 78.0547C231.372 76.6478 229.606 74.7032 228.314 72.2238C227.023 69.7444 226.377 66.9448 226.377 63.8224C226.377 60.7 227.023 57.916 228.314 55.4666C229.606 53.0197 231.372 51.0908 233.618 49.6825L233.619 49.6851Z" fill="white"/>
<path d="M297.868 79.8025V88.7089C297.01 88.8287 296.059 88.9575 295.008 89.076C293.966 89.1957 293.042 89.2595 292.241 89.2595C287.019 89.2595 282.96 87.79 280.064 84.8525C277.177 81.9136 275.728 77.7825 275.728 72.4566V48.4915H266.871V39.0345H275.728V27.6487H286.152V39.0345H297.499V48.4915H286.152V71.9972C286.152 73.7139 286.43 75.1651 286.983 76.3587C287.536 77.5522 288.432 78.4697 289.658 79.1127C290.894 79.7557 292.491 80.0771 294.455 80.0771C294.953 80.0771 295.506 80.0498 296.115 79.9847C296.734 79.921 297.315 79.8663 297.868 79.8025Z" fill="white"/>
<path d="M149.056 19.0287C151.057 19.0287 152.764 19.7367 154.176 21.1515C155.587 22.5663 156.293 24.2804 156.293 26.2926C156.293 28.3047 155.593 29.9798 154.195 31.3933C152.798 32.8081 151.125 33.5148 149.179 33.5148C147.233 33.5148 145.472 32.7937 144.06 31.3516C142.648 29.9095 141.943 28.1681 141.943 26.1286C141.943 24.0891 142.634 22.496 144.019 21.1086C145.403 19.7211 147.082 19.0287 149.056 19.0287Z" fill="white"/>
<path d="M344.111 54.5L353.67 44.9858C354.249 44.4092 354.354 43.5125 353.924 42.8187L333.563 10.0305L324.004 19.5447C323.425 20.1213 323.32 21.018 323.751 21.7117L344.111 54.5Z" fill="white"/>
<path d="M378.243 20.5273L368.684 30.0415C368.105 30.6181 367.204 30.7222 366.507 30.294L333.563 10.0305L343.123 0.514868C343.703 -0.0617121 344.604 -0.165835 345.301 0.26237L378.243 20.5273Z" fill="white"/>
<path d="M412.376 54.4998L402.817 44.9855C402.238 44.409 402.133 43.5122 402.563 42.8185L422.924 10.0302L432.483 19.5444C433.062 20.121 433.167 21.0178 432.736 21.7115L412.376 54.4998Z" fill="white"/>
<path d="M378.243 20.5273L387.802 30.0415C388.382 30.6181 389.283 30.7222 389.98 30.294L422.924 10.0302L413.363 0.514868C412.784 -0.0617121 411.883 -0.165835 411.186 0.26237L378.243 20.5273Z" fill="white"/>
<path d="M344.111 54.5L353.67 64.0141C354.249 64.5907 354.354 65.4875 353.924 66.1812L333.563 98.9695L324.004 89.4552C323.425 88.8787 323.32 87.9819 323.751 87.2882L344.111 54.5Z" fill="white"/>
<path d="M378.243 88.4725L368.684 78.9583C368.105 78.3817 367.204 78.2776 366.507 78.7058L333.563 98.9695L343.123 108.485C343.703 109.061 344.604 109.166 345.301 108.737L378.243 88.4725Z" fill="white"/>
<path d="M412.376 54.4998L402.817 64.0141C402.238 64.5907 402.133 65.4875 402.563 66.1812L422.924 98.9695L432.483 89.4552C433.062 88.8787 433.167 87.9819 432.736 87.2882L412.376 54.4998Z" fill="white"/>
<path d="M378.243 88.4725L387.802 78.9583C388.382 78.3817 389.283 78.2776 389.98 78.7058L422.924 98.9695L413.363 108.485C412.784 109.061 411.883 109.166 411.186 108.737L378.243 88.4725Z" fill="white"/>
</svg>
