<svg width="188" height="188" viewBox="0 0 188 188" fill="none" xmlns="http://www.w3.org/2000/svg">
<path d="M144.775 118.23L187.487 187.262L118.372 144.602C116.91 143.698 115.021 143.924 113.803 145.132L93.7436 165.167L73.6843 145.132C72.466 143.915 70.5775 143.698 69.1155 144.602L0 187.262L42.712 118.23C43.617 116.77 43.3908 114.883 42.1811 113.666L22.1218 93.6312L42.1811 73.5959C43.3995 72.379 43.617 70.4928 42.712 69.0326L0 0L69.1155 42.6608C70.5775 43.5648 72.466 43.3388 73.6843 42.1306L93.7436 22.0953L113.803 42.1306C115.021 43.3474 116.91 43.5648 118.372 42.6608L187.487 0L144.775 69.0326C143.87 70.4928 144.096 72.379 145.306 73.5959L165.365 93.6312L145.306 113.666C144.088 114.883 143.87 116.77 144.775 118.23Z" fill="#0E56FA"/>
</svg>
