<svg width="831" height="194" viewBox="0 0 831 194" fill="none" xmlns="http://www.w3.org/2000/svg">
<path d="M16.582 119.706C16.7818 119.706 16.9816 119.706 17.2813 119.706V55.9692L88.6037 14.9384L140.747 45.0144C142.145 40.732 144.743 37.0472 148.139 34.3583L88.5038 0L4.29541 48.5V123.292C7.79161 121.001 11.987 119.706 16.582 119.706Z" fill="#51B981"/>
<path d="M162.024 74.194C161.225 74.194 160.525 74.194 159.826 74.0944V138.031L88.5037 179.062L37.5591 149.782C36.0608 153.965 33.2638 157.55 29.6677 160.14L88.4038 194L172.612 145.5V71.5051C169.516 73.1981 165.919 74.194 162.024 74.194Z" fill="#012A49"/>
<path d="M161.225 36.1509C152.534 36.1509 145.442 43.2217 145.442 51.886C145.442 54.5749 146.141 57.0646 147.34 59.2556L102.389 100.884C99.5916 98.4938 95.9955 97 91.9999 97C83.3093 97 76.2171 104.071 76.2171 112.735C76.2171 113.532 76.3169 114.428 76.4168 115.225L26.1715 130.263C23.3746 127.773 19.7785 126.279 15.7828 126.279C7.09228 126.279 0 133.35 0 142.014C0 150.679 7.09228 157.749 15.7828 157.749C24.4734 157.749 31.5656 150.679 31.5656 142.014C31.5656 141.018 31.4658 139.923 31.266 138.927L81.0118 123.989C83.8088 126.678 87.7046 128.371 91.9999 128.371C100.69 128.371 107.783 121.3 107.783 112.635C107.783 111.54 107.683 110.544 107.483 109.548L154.332 65.9281C156.43 66.924 158.727 67.5215 161.225 67.5215C169.915 67.5215 177.007 60.4507 177.007 51.7864C177.007 43.1221 169.915 36.1509 161.225 36.1509ZM15.7828 148.089C12.4864 148.089 9.78935 145.4 9.78935 142.114C9.78935 138.827 12.4864 136.139 15.7828 136.139C19.0792 136.139 21.7763 138.827 21.7763 142.114C21.7763 145.4 19.0792 148.089 15.7828 148.089ZM91.9999 118.81C88.7035 118.81 86.0064 116.121 86.0064 112.835C86.0064 109.548 88.7035 106.859 91.9999 106.859C95.2963 106.859 97.9934 109.548 97.9934 112.835C97.9934 116.121 95.2963 118.81 91.9999 118.81ZM161.225 57.8613C157.928 57.8613 155.231 55.1724 155.231 51.886C155.231 48.5995 157.928 45.9106 161.225 45.9106C164.521 45.9106 167.218 48.5995 167.218 51.886C167.218 55.1724 164.521 57.8613 161.225 57.8613Z" fill="#51B981"/>
<path d="M209.1 36H225.482V79.6201C225.482 83.7033 225.182 86.691 225.182 86.691H225.482C229.178 78.4251 240.066 67.6694 257.048 67.6694C277.126 67.6694 286.416 78.6242 286.416 100.335V154.91H270.034V104.119C270.034 92.1684 267.536 82.7074 253.851 82.7074C240.965 82.7074 230.377 91.4713 226.781 103.82C225.782 107.206 225.382 111.09 225.382 115.074V155.009H209V36H209.1Z" fill="#012A49"/>
<path d="M350.946 67.6694C376.518 67.6694 397.095 86.3922 397.095 112.186C397.095 138.179 376.518 157.001 350.946 157.001C325.373 157.001 304.796 138.079 304.796 112.186C304.796 86.3922 325.373 67.6694 350.946 67.6694ZM350.946 142.859C367.128 142.859 380.314 130.012 380.314 112.186C380.314 94.459 367.128 81.8111 350.946 81.8111C334.863 81.8111 321.578 94.459 321.578 112.186C321.478 130.012 334.863 142.859 350.946 142.859Z" fill="#012A49"/>
<path d="M415.475 36H431.858V128.817C431.858 139.075 435.953 140.967 440.948 140.967C442.446 140.967 443.844 140.768 443.844 140.768V155.308C443.844 155.308 441.347 155.607 438.45 155.607C429.16 155.607 415.475 153.117 415.475 131.705V36Z" fill="#012A49"/>
<path d="M461.126 36H477.708V52.731H461.126V36ZM461.226 69.7608H477.608V155.009H461.226V69.7608Z" fill="#012A49"/>
<path d="M504.379 132.9C504.379 132.9 513.968 142.859 528.852 142.859C535.944 142.859 543.036 139.175 543.036 132.203C543.036 116.568 499.084 119.755 499.084 91.9692C499.084 76.4333 512.969 67.6694 530.051 67.6694C548.83 67.6694 557.621 77.1304 557.621 77.1304L551.028 89.4795C551.028 89.4795 543.436 81.9107 529.851 81.9107C522.759 81.9107 515.866 84.8984 515.866 92.3676C515.866 107.704 559.818 104.318 559.818 132.303C559.818 146.445 547.631 157.101 528.852 157.101C507.875 157.101 496.387 144.652 496.387 144.652L504.379 132.9Z" fill="#012A49"/>
<path d="M582.594 84.0019H571.406V70.8561H583.093V46.2576H598.976V70.8561H619.553V84.0019H598.976V121.945C598.976 138.975 610.963 141.166 617.256 141.166C619.653 141.166 621.152 140.867 621.152 140.867V155.407C621.152 155.407 618.754 155.706 615.358 155.706C604.37 155.706 582.594 152.32 582.594 123.838V84.0019Z" fill="#012A49"/>
<path d="M639.432 36H656.014V52.731H639.432V36ZM639.532 69.7608H655.914V155.009H639.532V69.7608Z" fill="#012A49"/>
<path d="M721.342 67.6694C742.819 67.6694 753.507 80.1181 753.507 80.1181L745.716 91.6705C745.716 91.6705 736.626 81.9107 722.042 81.9107C704.76 81.9107 692.274 94.7577 692.274 112.285C692.274 129.614 704.76 142.959 722.541 142.959C738.424 142.959 748.912 131.506 748.912 131.506L755.505 143.457C755.505 143.457 743.718 157.101 721.342 157.101C694.471 157.101 675.492 138.079 675.492 112.485C675.592 87.0894 694.471 67.6694 721.342 67.6694Z" fill="#012A49"/>
<path d="M775.084 132.9C775.084 132.9 784.674 142.859 799.557 142.859C806.65 142.859 813.742 139.175 813.742 132.203C813.742 116.568 769.79 119.755 769.79 91.9692C769.79 76.4333 783.675 67.6694 800.756 67.6694C819.536 67.6694 828.326 77.1304 828.326 77.1304L821.733 89.4795C821.733 89.4795 814.142 81.9107 800.556 81.9107C793.464 81.9107 786.572 84.8984 786.572 92.3676C786.572 107.704 830.524 104.318 830.524 132.303C830.524 146.445 818.337 157.101 799.557 157.101C778.58 157.101 767.093 144.652 767.093 144.652L775.084 132.9Z" fill="#012A49"/>
</svg>
