<?xml version="1.0" encoding="UTF-8"?>
<svg version="1.1" xmlns="http://www.w3.org/2000/svg" width="1200" height="246">
<path d="M0 0 C3.30466611 2.83549866 6.34965524 5.87806663 9.38671875 8.99609375 C10.21460403 9.82963882 11.04248932 10.6631839 11.89546204 11.52198792 C14.50246796 14.15114214 17.0951093 16.79394211 19.6875 19.4375 C21.4671622 21.2372549 23.24775326 23.03609182 25.02929688 24.83398438 C29.36364597 29.21211451 33.68633306 33.6014958 38 38 C43.10981939 33.74339187 47.7971625 29.26194407 52.41015625 24.4765625 C53.8266909 23.02787974 55.24403497 21.57998808 56.66210938 20.1328125 C58.85897258 17.88685874 61.05094179 15.63701272 63.22924805 13.37304688 C77.49143331 -1.42479972 93.46360765 -13.9579165 115 -15 C116.40572266 -15.07541016 116.40572266 -15.07541016 117.83984375 -15.15234375 C136.66320175 -15.72274854 154.50693711 -9.82420718 168.8515625 2.4375 C183.8276439 16.62970937 191.71090161 34.782955 192.3125 55.3125 C191.94634988 74.44384395 184.97169169 91.94444443 171.75 105.75 C157.46469859 119.44983824 139.68417155 126.57409383 119.9440918 126.41943359 C100.86690107 125.7968492 85.01672417 118.88526582 71.51269531 105.44946289 C69.85989851 103.86575491 68.14005671 102.38775003 66.3984375 100.90234375 C60.64986612 95.91643524 55.35516743 90.46180801 50 85.0625 C48.92862113 83.98609346 47.85700818 82.90991986 46.78515625 81.83398438 C44.18740362 79.22533255 41.59282038 76.61355529 39 74 C35.88222021 75.37963614 33.8226174 76.955181 31.46337891 79.40478516 C30.78812164 80.09955963 30.11286438 80.79433411 29.41714478 81.51016235 C28.69425262 82.2621994 27.97136047 83.01423645 27.2265625 83.7890625 C25.66338013 85.3873251 24.09955645 86.98496066 22.53515625 88.58203125 C20.08879561 91.08985579 17.64731209 93.60182819 15.21728516 96.12548828 C2.80659842 108.98839656 -8.48159836 118.9105561 -26 124 C-27.14082031 124.33644531 -27.14082031 124.33644531 -28.3046875 124.6796875 C-46.34763318 129.1144856 -65.78936349 125.5559878 -81.625 116.203125 C-86.63913305 113.04253102 -90.87290239 109.23705581 -95 105 C-95.69480469 104.33742188 -96.38960937 103.67484375 -97.10546875 102.9921875 C-109.14127295 90.74686253 -115.02962773 72.8143432 -115.25 55.9375 C-115.07943766 36.72081011 -108.04296532 19.12997661 -94.75 5.25 C-68.20623437 -20.171178 -29.37706268 -20.95221058 0 0 Z M-80.921875 25.4375 C-90.02584249 36.66344487 -92.3139321 49.97705962 -91 64 C-89.39591 72.06602074 -85.90926698 78.48578036 -81 85 C-80.4225 85.86625 -79.845 86.7325 -79.25 87.625 C-70.94586676 96.39047397 -58.71240499 102.45187975 -46.578125 103.05859375 C-28.22450111 102.64146593 -16.4739185 94.55569681 -4 82 C-2.44680767 80.45329033 -0.89146789 78.9087553 0.66377258 77.36410522 C7.46951145 70.60284911 14.24220444 63.80914059 21 57 C19.36020303 52.77289692 16.21549791 49.98003422 13.0390625 46.87890625 C12.45208588 46.2971312 11.86510925 45.71535614 11.26034546 45.11595154 C9.38659432 43.25997589 7.50629831 41.41082263 5.625 39.5625 C3.75169934 37.71691802 1.87991345 35.86986365 0.01107788 34.01976013 C-1.15033224 32.87049541 -2.31440517 31.72391335 -3.48153687 30.58045959 C-6.56224234 27.53744561 -9.31959858 24.41033217 -12 21 C-33.59255261 2.77891613 -61.65455169 5.49649406 -80.921875 25.4375 Z M66.75 43.1875 C65.60049954 44.34203501 64.45076096 45.49633298 63.30078125 46.65039062 C60.53111674 49.43088409 57.76464098 52.21451196 55 55 C59.00341477 59.7814568 63.16244377 64.34384214 67.54296875 68.78125 C68.45662956 69.70701843 68.45662956 69.70701843 69.38874817 70.65148926 C70.67053875 71.94701122 71.95381857 73.24106128 73.23852539 74.53369141 C74.53341325 75.84009587 75.8238244 77.15095348 77.10961914 78.46630859 C88.86066841 90.48651178 101.00102381 101.84541184 118.68139648 102.41967773 C133.39374603 102.52979785 144.35447596 98.53654412 155.25 88.375 C164.61618424 78.61119473 168.43143972 66.89029589 168.36352539 53.56030273 C168.04697784 40.51713686 162.42626786 30.66890781 153.6875 21.25 C143.84212214 11.93205309 132.66741474 8.48501787 119.39819336 8.578125 C96.62004704 9.34555894 81.68239275 28.13896154 66.75 43.1875 Z " fill="#0096FD" transform="translate(117,65)"/>
<path d="M0 0 C4.1660552 3.49318718 8.08351982 7.23239187 12 11 C12.63421875 11.55945312 13.2684375 12.11890625 13.921875 12.6953125 C26.83627116 24.44126329 35.05633275 41.66740559 40.421875 57.94921875 C40.92695839 59.47448433 40.92695839 59.47448433 41.44224548 61.03056335 C46.45218397 76.28443453 51.1803803 91.62911013 55.91235352 106.97094727 C57.30328653 111.47888596 58.7050512 115.9833857 60.10899448 120.48728657 C61.19656836 123.9829444 62.27637915 127.4809641 63.35401726 130.97969627 C63.8682392 132.64441142 64.38539107 134.3082245 64.90555 135.97109413 C65.62440675 138.27165363 66.33223244 140.57532677 67.03735352 142.88012695 C67.25279816 143.56099365 67.4682428 144.24186035 67.69021606 144.94335938 C68.67810804 148.21402269 69.10867809 149.67396574 68 153 C60.41 153 52.82 153 45 153 C45 172.14 45 191.28 45 211 C13.33524945 211.1209091 13.33524945 211.1209091 -0.02539062 211.14648438 C-9.21790642 211.16422321 -18.41033919 211.18497388 -27.6027832 211.22631836 C-34.30027097 211.25642676 -40.99769079 211.27562329 -47.69524437 211.28226548 C-51.23435361 211.28614187 -54.77326864 211.29510856 -58.31231499 211.31719017 C-76.03361882 211.42347047 -93.07177582 211.27585117 -110 205.375 C-110.73436279 205.12266602 -111.46872559 204.87033203 -112.2253418 204.61035156 C-135.40532302 196.28387459 -157.03452015 180.15420397 -170 159 C-168.6415798 155.95667235 -167.11536976 153.87690849 -164.7421875 151.546875 C-164.11699219 150.928125 -163.49179688 150.309375 -162.84765625 149.671875 C-162.19667969 149.03765625 -161.54570312 148.4034375 -160.875 147.75 C-159.88693359 146.77546875 -159.88693359 146.77546875 -158.87890625 145.78125 C-157.25703357 144.18288273 -155.6306719 142.58938103 -154 141 C-149.98556762 142.80856225 -148.35325449 144.93880098 -145.8125 148.5625 C-132.12040905 167.40464576 -111.59217895 180.19869222 -88.62207031 184.43896484 C-62.94587015 188.46330373 -37.93139222 183.00618545 -16.75 167.6875 C2.48073044 152.57946943 16.13082171 130.90643889 19.68359375 106.453125 C22.13862553 79.65993866 15.45037106 55.10993946 -1.4921875 34.01171875 C-16.00477821 16.58304673 -37.37533751 4.75239203 -60 2 C-88.5587239 0.37419571 -113.0478137 6.85431038 -135 26 C-135.60199219 26.51820312 -136.20398438 27.03640625 -136.82421875 27.5703125 C-142.87611125 33.18488876 -147.33887911 40.23809223 -152 47 C-158.41069287 41.72898586 -164.18590512 35.90871848 -170 30 C-163.3494168 11.33227389 -141.35862295 -3.87980598 -124.23657227 -12.23217773 C-83.65479456 -31.11091567 -35.89024081 -27.46553028 0 0 Z " fill="#2A344F" transform="translate(310,27)"/>
<path d="M0 0 C0 8.91 0 17.82 0 27 C-9.98388541 27 -9.98388541 27 -13.7734375 26.51953125 C-30.18136696 24.73688666 -51.46403163 23.00469458 -65.75 32.875 C-75.69799212 41.70794246 -75.9466072 53.35928636 -77 66 C-47.63 66 -18.26 66 12 66 C12 120.45 12 174.9 12 231 C2.43 231 -7.14 231 -17 231 C-17.33 186.12 -17.66 141.24 -18 95 C-37.47 95 -56.94 95 -77 95 C-77 139.88 -77 184.76 -77 231 C-86.9 231 -96.8 231 -107 231 C-107 186.12 -107 141.24 -107 95 C-115.58 95 -124.16 95 -133 95 C-133 85.43 -133 75.86 -133 66 C-124.42 66 -115.84 66 -107 66 C-107 62.37 -107 58.74 -107 55 C-105.65753239 38.20149078 -100.52951379 22.69421287 -88 11 C-62.943116 -8.46697072 -29.27205918 -5.85441184 0 0 Z " fill="#2A344F" transform="translate(802,7)"/>
<path d="M0 0 C5.13697272 4.29607443 9.44832588 9.18192682 13.8125 14.25 C14.1425 6.33 14.4725 -1.59 14.8125 -9.75 C24.7125 -9.75 34.6125 -9.75 44.8125 -9.75 C44.8125 44.7 44.8125 99.15 44.8125 155.25 C34.9125 155.25 25.0125 155.25 14.8125 155.25 C14.4825 147.33 14.1525 139.41 13.8125 131.25 C12.20375 133.085625 10.595 134.92125 8.9375 136.8125 C-3.0428379 150.03604695 -18.94337947 158.22800137 -36.875 159.43017578 C-60.48766041 160.52524431 -81.55167829 156.50026258 -99.73828125 140.515625 C-100.95064453 139.39414062 -100.95064453 139.39414062 -102.1875 138.25 C-102.96480469 137.56421875 -103.74210937 136.8784375 -104.54296875 136.171875 C-119.5435714 122.22983467 -129.38883015 100.71591498 -130.1875 80.25 C-130.2390625 79.17878906 -130.290625 78.10757813 -130.34375 77.00390625 C-130.98470375 51.76635249 -123.0694573 29.63899096 -106.02734375 10.87109375 C-79.14634219 -17.14772798 -31.78878419 -24.18287877 0 0 Z M-85.1875 32.25 C-91.26326417 39.15522003 -95.21597665 46.57603912 -98.1875 55.25 C-98.43371094 55.96285156 -98.67992187 56.67570312 -98.93359375 57.41015625 C-103.10959966 72.35737742 -100.13170999 88.88214584 -92.96484375 102.3046875 C-84.13634046 116.93477867 -71.8246222 125.81714213 -55.36328125 129.9609375 C-40.6222873 132.99179607 -25.24725179 130.81666375 -12.375 122.9375 C1.40571431 113.49701066 10.93854193 101.25981842 14.42211914 84.64331055 C17.14373385 67.95788905 13.94046062 52.43317169 4.8125 38.25 C-3.84428426 26.23720594 -16.67178713 18.08855275 -31.1875 15.25 C-51.76322881 12.04484834 -70.17144091 17.60356698 -85.1875 32.25 Z " fill="#2A344F" transform="translate(1153.1875,82.75)"/>
<path d="M0 0 C14.25924301 12.09715203 21.37173016 28.06210786 22.90625 46.5546875 C23.26554064 54.99146839 23.13957714 63.44459942 23.1015625 71.88671875 C23.09782655 74.33436466 23.09498233 76.78201208 23.09298706 79.22966003 C23.0853964 85.6328656 23.06578767 92.03597863 23.0435791 98.43914795 C23.0230217 104.98871611 23.01396429 111.53829941 23.00390625 118.08789062 C22.98253703 130.91020318 22.94739265 143.73242313 22.90625 156.5546875 C13.00625 156.5546875 3.10625 156.5546875 -7.09375 156.5546875 C-7.1030957 153.32083252 -7.11244141 150.08697754 -7.12207031 146.75512695 C-7.15593621 136.03421687 -7.21153861 125.31349732 -7.27765274 114.59274006 C-7.3170519 108.09689175 -7.34927759 101.60117748 -7.36474609 95.10522461 C-7.37996226 88.82861541 -7.41449628 82.55237488 -7.46205902 76.2759304 C-7.47682166 73.88916426 -7.48478805 71.50234547 -7.48563385 69.11553383 C-7.12986383 46.84655693 -7.12986383 46.84655693 -17.0546875 27.48828125 C-26.43225647 18.59575895 -37.98830083 15.9521297 -50.6015625 16.26953125 C-59.64681275 17.00812551 -67.57768541 19.44545258 -75.09375 24.5546875 C-75.78210938 25.01230469 -76.47046875 25.46992187 -77.1796875 25.94140625 C-87.35621419 33.68102521 -90.87838573 46.11065108 -92.80071449 58.20383072 C-93.82361097 66.40994589 -93.58061775 74.76462797 -93.60546875 83.01953125 C-93.62234971 85.15044668 -93.64050443 87.28135237 -93.65986633 89.4122467 C-93.70700168 94.97033642 -93.73704556 100.52838659 -93.76330566 106.08660889 C-93.79329693 111.77852179 -93.8397626 117.47029887 -93.88476562 123.16210938 C-93.97038307 134.29291261 -94.03638523 145.42370278 -94.09375 156.5546875 C-103.66375 156.5546875 -113.23375 156.5546875 -123.09375 156.5546875 C-123.09375 102.1046875 -123.09375 47.6546875 -123.09375 -8.4453125 C-113.52375 -8.4453125 -103.95375 -8.4453125 -94.09375 -8.4453125 C-93.76375 -1.8453125 -93.43375 4.7546875 -93.09375 11.5546875 C-91.77375 10.0284375 -90.45375 8.5021875 -89.09375 6.9296875 C-67.14070862 -17.35222567 -25.79646578 -20.38963078 0 0 Z " fill="#2A344F" transform="translate(975.09375,81.4453125)"/>
<path d="M0 0 C13.66642664 11.4383956 21.36475991 26.4216867 24 44 C24.25555421 47.87024804 24.2541194 51.72257474 24.22705078 55.60009766 C24.22734283 56.71346497 24.22763489 57.82683228 24.22793579 58.97393799 C24.22655256 62.62072797 24.21103891 66.26730861 24.1953125 69.9140625 C24.19157879 72.45567717 24.18873351 74.99729328 24.18673706 77.53890991 C24.17990467 83.52391668 24.16417333 89.50883485 24.14403808 95.49380624 C24.12159729 102.31372863 24.11066519 109.13365476 24.10064721 115.95360494 C24.07980441 129.96911833 24.04316127 143.98453848 24 158 C14.43 158 4.86 158 -5 158 C-5.01981934 155.01372559 -5.03963867 152.02745117 -5.06005859 148.95068359 C-5.12722222 139.04007469 -5.20485674 129.12956722 -5.28752708 119.21907616 C-5.33729093 113.21540982 -5.38362148 107.2117594 -5.421875 101.20800781 C-5.45898086 95.40480622 -5.50540667 89.60174467 -5.55806351 83.79866409 C-5.57647393 81.5941376 -5.59163009 79.38958125 -5.60334396 77.185009 C-5.05742119 51.28774306 -5.05742119 51.28774306 -16.04296875 28.6171875 C-25.55686193 19.49058555 -36.54950018 17.65446842 -49.3359375 17.7890625 C-61.39041149 18.48303009 -70.94336501 23.16252741 -80 31 C-93.45016458 47.2464566 -92.1438847 68.91616107 -92.31640625 88.76171875 C-92.33701206 90.76382338 -92.35800939 92.76592401 -92.37937927 94.76802063 C-92.43422582 100.00394427 -92.48379802 105.2399047 -92.53222656 110.47589111 C-92.58271712 115.83226748 -92.63825846 121.1885913 -92.69335938 126.54492188 C-92.80048236 137.02990443 -92.90155906 147.51493233 -93 158 C-102.57 158 -112.14 158 -122 158 C-122 103.55 -122 49.1 -122 -7 C-112.43 -7 -102.86 -7 -93 -7 C-93 -0.4 -93 6.2 -93 13 C-89.4007162 9.40197173 -89.4007162 9.40197173 -85.81640625 5.7890625 C-63.29037422 -15.83905145 -25.54625255 -17.52855956 0 0 Z " fill="#2A344F" transform="translate(627,80)"/>
<path d="M0 0 C9.57 0 19.14 0 29 0 C29 54.45 29 108.9 29 165 C19.43 165 9.86 165 0 165 C0 110.55 0 56.1 0 0 Z " fill="#2A344F" transform="translate(438,73)"/>
<path d="M0 0 C4.98549772 3.44236747 8.6260653 7.02611009 10.625 12.8125 C11.49743808 19.60984721 11.44371122 25.49954813 7.21875 31.12109375 C2.37625251 36.26031289 -1.74996279 38.12413031 -8.875 38.4375 C-16.00003721 38.12413031 -20.12625251 36.26031289 -24.96875 31.12109375 C-28.60675767 26.28052243 -29.07439156 21.66921079 -28.7890625 15.71484375 C-28.05728962 10.58553005 -26.52710443 6.76895858 -22.65625 3.25 C-15.86361739 -1.81569212 -8.05172475 -2.83301427 0 0 Z " fill="#2A344F" transform="translate(461.375,6.1875)"/>
</svg>
