<svg id="Layer_1" data-name="Layer 1" xmlns="http://www.w3.org/2000/svg" viewBox="0 0 279 111.6"><title>VNG Corporation logo - Brandlogos.net</title><g id="Layer_2" data-name="Layer 2"><g id="Layer_1-2" data-name="Layer 1-2"><path d="M328.2,328.2V377a62.71,62.71,0,0,1-62.64,62.77H244.5V328.2h20.93v90.94a42,42,0,0,0,42-42V328.2Z" transform="translate(-244.5 -328.2)" style="fill:#e65a26"/><path d="M425.85,359.62V439.8H404.92V359.55a10.43,10.43,0,0,0-10.43-10.43H363.08V439.8H342.15V328.2h52.28a30.82,30.82,0,0,1,10.5,1.79,31.55,31.55,0,0,1,18.93,19.13A32,32,0,0,1,425.85,359.62Z" transform="translate(-244.5 -328.2)" style="fill:#e65a26"/><path d="M474.61,394.63h27.9v14a10.5,10.5,0,0,1-10.5,10.5H471.22a10.5,10.5,0,0,1-10.5-10.23V359.69a10.43,10.43,0,0,1,10.43-10.43h38.4V328.2h-38.4A30.16,30.16,0,0,0,460.72,330a31,31,0,0,0-20.92,29.63v48.69a32.22,32.22,0,0,0,1.73,10.5,31.49,31.49,0,0,0,19.2,19.13,30.16,30.16,0,0,0,10.43,1.79h20.93a30.16,30.16,0,0,0,10.43-1.79,31.35,31.35,0,0,0,19.2-19.13,32.15,32.15,0,0,0,1.79-10.3V373.64H474.61Z" transform="translate(-244.5 -328.2)" style="fill:#e65a26"/></g></g></svg>