<svg width="1368" height="847" viewBox="0 0 1368 847" fill="none" xmlns="http://www.w3.org/2000/svg">
<g filter="url(#filter0_f_1157_1056)">
<mask id="path-1-inside-1_1157_1056" fill="white">
<path d="M1236.49 669.623H84.9043C84.9043 669.623 615.047 653.173 924.298 496.151C1233.55 339.13 1236.49 84.9043 1236.49 84.9043V669.623Z"/>
</mask>
<g clip-path="url(#paint0_diamond_1157_1056_clip_path)" data-figma-skip-parse="true"><g transform="matrix(-0.321031 -0.140198 0.276116 -0.163003 1236.49 649.061)"><rect x="0" y="0" width="3777" height="1993.66" fill="url(#paint0_diamond_1157_1056)" opacity="1" shape-rendering="crispEdges"/><rect x="0" y="0" width="3777" height="1993.66" transform="scale(1 -1)" fill="url(#paint0_diamond_1157_1056)" opacity="1" shape-rendering="crispEdges"/><rect x="0" y="0" width="3777" height="1993.66" transform="scale(-1 1)" fill="url(#paint0_diamond_1157_1056)" opacity="1" shape-rendering="crispEdges"/><rect x="0" y="0" width="3777" height="1993.66" transform="scale(-1)" fill="url(#paint0_diamond_1157_1056)" opacity="1" shape-rendering="crispEdges"/></g></g><path d="M1236.49 669.623H84.9043C84.9043 669.623 615.047 653.173 924.298 496.151C1233.55 339.13 1236.49 84.9043 1236.49 84.9043V669.623Z" data-figma-gradient-fill="{&#34;type&#34;:&#34;GRADIENT_DIAMOND&#34;,&#34;stops&#34;:[{&#34;color&#34;:{&#34;r&#34;:0.054901961237192154,&#34;g&#34;:0.33725491166114807,&#34;b&#34;:0.98039215803146362,&#34;a&#34;:1.0},&#34;position&#34;:1.0}],&#34;stopsVar&#34;:[{&#34;color&#34;:{&#34;r&#34;:0.054901961237192154,&#34;g&#34;:0.33725491166114807,&#34;b&#34;:0.98039215803146362,&#34;a&#34;:1.0},&#34;position&#34;:1.0}],&#34;transform&#34;:{&#34;m00&#34;:-642.06231689453125,&#34;m01&#34;:552.23229980468750,&#34;m02&#34;:1281.4082031250,&#34;m10&#34;:-280.39572143554688,&#34;m11&#34;:-326.00686645507812,&#34;m12&#34;:952.26202392578125},&#34;opacity&#34;:1.0,&#34;blendMode&#34;:&#34;NORMAL&#34;,&#34;visible&#34;:true}"/>
<path d="M1236.49 669.623V670.472H1237.34V669.623H1236.49ZM84.9043 669.623L84.878 668.774L84.9043 670.472V669.623ZM924.298 496.151L924.682 496.908V496.908L924.298 496.151ZM1236.49 84.9043H1237.34L1235.64 84.8945L1236.49 84.9043ZM1236.49 669.623V668.774H84.9043V669.623V670.472H1236.49V669.623ZM84.9043 669.623C84.9306 670.472 84.9328 670.472 84.9369 670.471C84.941 670.471 84.9472 670.471 84.9553 670.471C84.9716 670.47 84.9959 670.47 85.0283 670.469C85.0929 670.466 85.1896 670.463 85.3179 670.459C85.5745 670.451 85.9577 670.438 86.4646 670.42C87.4784 670.384 88.9871 670.328 90.9676 670.248C94.9287 670.089 100.777 669.836 108.33 669.458C123.436 668.701 145.36 667.444 172.633 665.446C227.18 661.449 303.131 654.484 388.749 642.611C559.96 618.868 769.926 575.486 924.682 496.908L924.298 496.151L923.913 495.394C769.42 573.838 559.688 617.192 388.515 640.929C302.942 652.796 227.028 659.758 172.509 663.753C145.25 665.75 123.34 667.005 108.245 667.762C100.698 668.14 94.8552 668.393 90.8995 668.552C88.9217 668.631 87.4157 668.687 86.4044 668.723C85.8988 668.74 85.5169 668.753 85.2615 668.762C85.1338 668.766 85.0378 668.769 84.9738 668.771C84.9417 668.772 84.9177 668.773 84.9017 668.774C84.8937 668.774 84.8878 668.774 84.8838 668.774C84.8799 668.774 84.878 668.774 84.9043 669.623ZM924.298 496.151L924.682 496.908C1079.49 418.307 1157.66 315.351 1197.13 232.008C1216.86 190.343 1226.91 153.588 1232.03 127.242C1234.59 114.069 1235.92 103.498 1236.61 96.2145C1236.95 92.5727 1237.13 89.753 1237.23 87.841C1237.28 86.885 1237.31 86.156 1237.32 85.6646C1237.33 85.4189 1237.34 85.2326 1237.34 85.1071C1237.34 85.0443 1237.34 84.9968 1237.34 84.9645C1237.34 84.9484 1237.34 84.9362 1237.34 84.9278C1237.34 84.9236 1237.34 84.9201 1237.34 84.918C1237.34 84.9156 1237.34 84.9141 1236.49 84.9043C1235.64 84.8945 1235.64 84.8949 1235.64 84.8964C1235.64 84.8981 1235.64 84.9005 1235.64 84.9041C1235.64 84.9111 1235.64 84.9221 1235.64 84.9368C1235.64 84.9663 1235.64 85.0112 1235.64 85.0712C1235.64 85.1913 1235.63 85.372 1235.63 85.6122C1235.61 86.0924 1235.58 86.81 1235.54 87.7544C1235.44 89.6431 1235.26 92.4386 1234.92 96.055C1234.24 103.288 1232.92 113.804 1230.37 126.919C1225.27 153.147 1215.26 189.763 1195.6 231.281C1156.28 314.307 1078.36 416.974 923.913 495.394L924.298 496.151ZM1236.49 84.9043H1235.64V669.623H1236.49H1237.34V84.9043H1236.49Z" fill="black" mask="url(#path-1-inside-1_1157_1056)"/>
<g clip-path="url(#paint1_diamond_1157_1056_clip_path)" data-figma-skip-parse="true"><g transform="matrix(-0.321031 -0.140198 0.276116 -0.163003 1259.7 691.681)"><rect x="0" y="0" width="3777" height="1993.66" fill="url(#paint1_diamond_1157_1056)" opacity="1" shape-rendering="crispEdges"/><rect x="0" y="0" width="3777" height="1993.66" transform="scale(1 -1)" fill="url(#paint1_diamond_1157_1056)" opacity="1" shape-rendering="crispEdges"/><rect x="0" y="0" width="3777" height="1993.66" transform="scale(-1 1)" fill="url(#paint1_diamond_1157_1056)" opacity="1" shape-rendering="crispEdges"/><rect x="0" y="0" width="3777" height="1993.66" transform="scale(-1)" fill="url(#paint1_diamond_1157_1056)" opacity="1" shape-rendering="crispEdges"/></g></g><path d="M1259.28 711.819H128.138C129.223 711.767 130.351 711.713 131.519 711.654C146.622 710.898 168.542 709.642 195.812 707.644C250.351 703.647 326.293 696.683 411.899 684.812C583.101 661.07 793.007 617.694 947.698 539.15C1102.41 460.594 1180.53 357.711 1219.96 274.447C1239.67 232.819 1249.71 196.099 1254.83 169.782C1257.25 157.331 1258.56 147.208 1259.28 139.995V711.819Z" data-figma-gradient-fill="{&#34;type&#34;:&#34;GRADIENT_DIAMOND&#34;,&#34;stops&#34;:[{&#34;color&#34;:{&#34;r&#34;:0.090196080505847931,&#34;g&#34;:0.79215687513351440,&#34;b&#34;:0.98039215803146362,&#34;a&#34;:1.0},&#34;position&#34;:1.0}],&#34;stopsVar&#34;:[{&#34;color&#34;:{&#34;r&#34;:0.090196080505847931,&#34;g&#34;:0.79215687513351440,&#34;b&#34;:0.98039215803146362,&#34;a&#34;:1.0},&#34;position&#34;:1.0}],&#34;transform&#34;:{&#34;m00&#34;:-642.06213378906250,&#34;m01&#34;:552.23211669921875,&#34;m02&#34;:1304.6168212890625,&#34;m10&#34;:-280.39553833007812,&#34;m11&#34;:-326.00665283203125,&#34;m12&#34;:994.88244628906250},&#34;opacity&#34;:1.0,&#34;blendMode&#34;:&#34;NORMAL&#34;,&#34;visible&#34;:true}" stroke="black" stroke-width="0.849044"/>
<g clip-path="url(#paint2_diamond_1157_1056_clip_path)" data-figma-skip-parse="true"><g transform="matrix(-0.321031 -0.140198 0.276116 -0.163003 1282.91 741.031)"><rect x="0" y="0" width="3777" height="1993.66" fill="url(#paint2_diamond_1157_1056)" opacity="1" shape-rendering="crispEdges"/><rect x="0" y="0" width="3777" height="1993.66" transform="scale(1 -1)" fill="url(#paint2_diamond_1157_1056)" opacity="1" shape-rendering="crispEdges"/><rect x="0" y="0" width="3777" height="1993.66" transform="scale(-1 1)" fill="url(#paint2_diamond_1157_1056)" opacity="1" shape-rendering="crispEdges"/><rect x="0" y="0" width="3777" height="1993.66" transform="scale(-1)" fill="url(#paint2_diamond_1157_1056)" opacity="1" shape-rendering="crispEdges"/></g></g><path d="M1282.49 761.169H151.348C152.433 761.116 153.561 761.062 154.729 761.004C169.832 760.247 191.752 758.991 219.021 756.993C273.561 752.997 349.503 746.033 435.109 734.161C606.311 710.42 816.217 667.044 970.908 588.5C1125.62 509.944 1203.74 407.06 1243.17 323.797C1262.88 282.168 1272.92 245.448 1278.04 219.132C1280.46 206.68 1281.77 196.557 1282.49 189.345V761.169Z" data-figma-gradient-fill="{&#34;type&#34;:&#34;GRADIENT_DIAMOND&#34;,&#34;stops&#34;:[{&#34;color&#34;:{&#34;r&#34;:1.0,&#34;g&#34;:1.0,&#34;b&#34;:1.0,&#34;a&#34;:1.0},&#34;position&#34;:1.0}],&#34;stopsVar&#34;:[{&#34;color&#34;:{&#34;r&#34;:1.0,&#34;g&#34;:1.0,&#34;b&#34;:1.0,&#34;a&#34;:1.0},&#34;position&#34;:1.0}],&#34;transform&#34;:{&#34;m00&#34;:-642.06213378906250,&#34;m01&#34;:552.23211669921875,&#34;m02&#34;:1327.8267822265625,&#34;m10&#34;:-280.39553833007812,&#34;m11&#34;:-326.00665283203125,&#34;m12&#34;:1044.2320556640625},&#34;opacity&#34;:1.0,&#34;blendMode&#34;:&#34;NORMAL&#34;,&#34;visible&#34;:true}" stroke="black" stroke-width="0.849044"/>
</g>
<defs>
<filter id="filter0_f_1157_1056" x="-9.91821e-05" y="-9.91821e-05" width="1367.82" height="846.498" filterUnits="userSpaceOnUse" color-interpolation-filters="sRGB">
<feFlood flood-opacity="0" result="BackgroundImageFix"/>
<feBlend mode="normal" in="SourceGraphic" in2="BackgroundImageFix" result="shape"/>
<feGaussianBlur stdDeviation="42.4522" result="effect1_foregroundBlur_1157_1056"/>
</filter>
<clipPath id="paint0_diamond_1157_1056_clip_path"><path d="M1236.49 669.623H84.9043C84.9043 669.623 615.047 653.173 924.298 496.151C1233.55 339.13 1236.49 84.9043 1236.49 84.9043V669.623Z"/></clipPath><clipPath id="paint1_diamond_1157_1056_clip_path"><path d="M1259.28 711.819H128.138C129.223 711.767 130.351 711.713 131.519 711.654C146.622 710.898 168.542 709.642 195.812 707.644C250.351 703.647 326.293 696.683 411.899 684.812C583.101 661.07 793.007 617.694 947.698 539.15C1102.41 460.594 1180.53 357.711 1219.96 274.447C1239.67 232.819 1249.71 196.099 1254.83 169.782C1257.25 157.331 1258.56 147.208 1259.28 139.995V711.819Z" stroke-width="0.849044"/></clipPath><clipPath id="paint2_diamond_1157_1056_clip_path"><path d="M1282.49 761.169H151.348C152.433 761.116 153.561 761.062 154.729 761.004C169.832 760.247 191.752 758.991 219.021 756.993C273.561 752.997 349.503 746.033 435.109 734.161C606.311 710.42 816.217 667.044 970.908 588.5C1125.62 509.944 1203.74 407.06 1243.17 323.797C1262.88 282.168 1272.92 245.448 1278.04 219.132C1280.46 206.68 1281.77 196.557 1282.49 189.345V761.169Z" stroke-width="0.849044"/></clipPath><linearGradient id="paint0_diamond_1157_1056" x1="0" y1="0" x2="500" y2="500" gradientUnits="userSpaceOnUse">
<stop offset="1" stop-color="#0E56FA"/>
</linearGradient>
<linearGradient id="paint1_diamond_1157_1056" x1="0" y1="0" x2="500" y2="500" gradientUnits="userSpaceOnUse">
<stop offset="1" stop-color="#17CAFA"/>
</linearGradient>
<linearGradient id="paint2_diamond_1157_1056" x1="0" y1="0" x2="500" y2="500" gradientUnits="userSpaceOnUse">
<stop offset="1" stop-color="white"/>
</linearGradient>
</defs>
</svg>
