<svg width="562" height="275" viewBox="0 0 562 275" fill="none" xmlns="http://www.w3.org/2000/svg">
<g filter="url(#filter0_di_1687_1656)">
<g clip-path="url(#clip0_1687_1656)">
<rect x="28.5" y="12.5" width="505" height="218" rx="30" fill="white" fill-opacity="0.13" shape-rendering="crispEdges"/>
<g filter="url(#filter1_f_1687_1656)">
<path d="M481.5 61.5C379.54 9.87471 -148.5 47.5 -170.5 28.5L567.5 -31.5V293.5H361.5C441.5 281.5 487.515 262.545 504 244C520 226 560.5 101.5 481.5 61.5Z" fill="#0E56FA"/>
<path d="M481.5 61.5C379.54 9.87471 -148.5 47.5 -170.5 28.5L567.5 -31.5V293.5H361.5C441.5 281.5 487.515 262.545 504 244C520 226 560.5 101.5 481.5 61.5Z" stroke="#0E56FA"/>
</g>
</g>
<rect x="28.79" y="12.79" width="504.42" height="217.42" rx="29.71" stroke="white" stroke-opacity="0.74" stroke-width="0.58" shape-rendering="crispEdges"/>
</g>
<defs>
<filter id="filter0_di_1687_1656" x="0" y="0" width="562" height="275" filterUnits="userSpaceOnUse" color-interpolation-filters="sRGB">
<feFlood flood-opacity="0" result="BackgroundImageFix"/>
<feColorMatrix in="SourceAlpha" type="matrix" values="0 0 0 0 0 0 0 0 0 0 0 0 0 0 0 0 0 0 127 0" result="hardAlpha"/>
<feOffset dy="16"/>
<feGaussianBlur stdDeviation="14.25"/>
<feComposite in2="hardAlpha" operator="out"/>
<feColorMatrix type="matrix" values="0 0 0 0 0 0 0 0 0 0 0 0 0 0 0 0 0 0 0.05 0"/>
<feBlend mode="normal" in2="BackgroundImageFix" result="effect1_dropShadow_1687_1656"/>
<feBlend mode="normal" in="SourceGraphic" in2="BackgroundImageFix" result="shape"/>
<feColorMatrix in="SourceAlpha" type="matrix" values="0 0 0 0 0 0 0 0 0 0 0 0 0 0 0 0 0 0 127 0" result="hardAlpha"/>
<feOffset dx="-8" dy="1"/>
<feGaussianBlur stdDeviation="12.5"/>
<feComposite in2="hardAlpha" operator="arithmetic" k2="-1" k3="1"/>
<feColorMatrix type="matrix" values="0 0 0 0 0.0901961 0 0 0 0 0.792157 0 0 0 0 0.980392 0 0 0 1 0"/>
<feBlend mode="normal" in2="shape" result="effect2_innerShadow_1687_1656"/>
<feBlend mode="normal" in="effect2_innerShadow_1687_1656" in2="effect1_dropShadow_1687_1656" result="effect2_innerShadow_1687_1656"/>
</filter>
<filter id="filter1_f_1687_1656" x="-245.73" y="-106.042" width="887.73" height="474.042" filterUnits="userSpaceOnUse" color-interpolation-filters="sRGB">
<feFlood flood-opacity="0" result="BackgroundImageFix"/>
<feBlend mode="normal" in="SourceGraphic" in2="BackgroundImageFix" result="shape"/>
<feGaussianBlur stdDeviation="37" result="effect1_foregroundBlur_1687_1656"/>
</filter>
<clipPath id="clip0_1687_1656">
<rect x="28.5" y="12.5" width="505" height="218" rx="30" fill="white"/>
</clipPath>
</defs>
</svg>
